<svg width="300" height="556" viewBox="0 0 300 556" fill="none" xmlns="http://www.w3.org/2000/svg">
<path d="M196.506 495.685C193.539 495.685 191.133 493.293 191.133 490.342C191.133 487.392 193.539 485 196.506 485C199.473 485 201.878 487.392 201.878 490.342C201.878 493.284 199.473 495.685 196.506 495.685Z" stroke="#04D361" stroke-width="2" stroke-miterlimit="10" stroke-linecap="round" stroke-linejoin="round"/>
<path d="M192.799 494.204L189 497.973" stroke="#04D361" stroke-width="2" stroke-miterlimit="10" stroke-linecap="round" stroke-linejoin="round"/>
<path d="M195.904 95.0052L190.252 100.626" stroke="#04D361" stroke-width="2" stroke-miterlimit="10" stroke-linecap="round" stroke-linejoin="round"/>
<path d="M195.904 100.626L190.252 95.0052" stroke="#04D361" stroke-width="2" stroke-miterlimit="10" stroke-linecap="round" stroke-linejoin="round"/>
<path d="M90.6521 461L84.9998 466.621" stroke="#04D361" stroke-width="2" stroke-miterlimit="10" stroke-linecap="round" stroke-linejoin="round"/>
<path d="M90.6521 466.621L84.9998 461" stroke="#04D361" stroke-width="2" stroke-miterlimit="10" stroke-linecap="round" stroke-linejoin="round"/>
<path d="M23.439 139.618L15.4458 139.618" stroke="#04D361" stroke-width="2" stroke-miterlimit="10" stroke-linecap="round" stroke-linejoin="round"/>
<path d="M19.4434 143.603L19.4434 135.645" stroke="#04D361" stroke-width="2" stroke-miterlimit="10" stroke-linecap="round" stroke-linejoin="round"/>
<path d="M153.858 10.6612C151.181 10.6612 149 8.50186 149 5.8306C149 3.16865 151.171 1 153.858 1C156.535 1 158.715 3.15935 158.715 5.8306C158.706 8.50186 156.535 10.6612 153.858 10.6612Z" stroke="#04D361" stroke-width="2" stroke-miterlimit="10" stroke-linecap="round" stroke-linejoin="round"/>
<path d="M293.858 258.661C291.181 258.661 289 256.502 289 253.831C289 251.169 291.171 249 293.858 249C296.535 249 298.715 251.159 298.715 253.831C298.706 256.502 296.535 258.661 293.858 258.661Z" stroke="#04D361" stroke-width="2" stroke-miterlimit="10" stroke-linecap="round" stroke-linejoin="round"/>
<path d="M5.85766 316.661C3.18079 316.661 0.999979 314.502 0.999979 311.831C0.999979 309.169 3.17143 307 5.85766 307C8.53452 307 10.7153 309.159 10.7153 311.831C10.706 314.502 8.53452 316.661 5.85766 316.661Z" stroke="#04D361" stroke-width="2" stroke-miterlimit="10" stroke-linecap="round" stroke-linejoin="round"/>
<path d="M88.35 7.74976C88.35 8.71599 89.1377 9.49927 90.1093 9.49927C91.081 9.49927 91.8687 8.71599 91.8687 7.74976C91.8687 6.78353 91.081 6.00024 90.1093 6.00024C89.1377 6.00024 88.35 6.78353 88.35 7.74976Z" fill="#9871F5"/>
<path d="M88.35 19.9703C88.35 20.9366 89.1377 21.7199 90.1093 21.7199C91.081 21.7199 91.8687 20.9366 91.8687 19.9703C91.8687 19.0041 91.081 18.2208 90.1093 18.2208C89.1377 18.2208 88.35 19.0041 88.35 19.9703Z" fill="#9871F5"/>
<path d="M88.35 32.1799C88.35 33.1462 89.1377 33.9294 90.1093 33.9294C91.081 33.9294 91.8687 33.1462 91.8687 32.1799C91.8687 31.2137 91.081 30.4304 90.1093 30.4304C89.1377 30.4304 88.35 31.2137 88.35 32.1799Z" fill="#9871F5"/>
<path d="M88.35 44.4001C88.35 45.3664 89.1377 46.1497 90.1093 46.1497C91.081 46.1497 91.8687 45.3664 91.8687 44.4001C91.8687 43.4339 91.081 42.6506 90.1093 42.6506C89.1377 42.6506 88.35 43.4339 88.35 44.4001Z" fill="#9871F5"/>
<path d="M88.35 56.6107C88.35 57.5769 89.1377 58.3602 90.1093 58.3602C91.081 58.3602 91.8687 57.5769 91.8687 56.6107C91.8687 55.6445 91.081 54.8612 90.1093 54.8612C89.1377 54.8612 88.35 55.6445 88.35 56.6107Z" fill="#9871F5"/>
<path d="M88.35 68.8306C88.35 69.7968 89.1377 70.5801 90.1093 70.5801C91.081 70.5801 91.8687 69.7968 91.8687 68.8306C91.8687 67.8643 91.081 67.0811 90.1093 67.0811C89.1377 67.0811 88.35 67.8643 88.35 68.8306Z" fill="#9871F5"/>
<path d="M76.07 7.74951C76.07 8.71574 76.8577 9.49903 77.8293 9.49903C78.8009 9.49903 79.5886 8.71574 79.5886 7.74951C79.5886 6.78328 78.8009 6 77.8293 6C76.8577 6 76.07 6.78328 76.07 7.74951Z" fill="#9871F5"/>
<path d="M76.07 19.9702C76.07 20.9364 76.8577 21.7197 77.8293 21.7197C78.8009 21.7197 79.5886 20.9364 79.5886 19.9702C79.5886 19.004 78.8009 18.2207 77.8293 18.2207C76.8577 18.2207 76.07 19.004 76.07 19.9702Z" fill="#9871F5"/>
<path d="M76.07 32.1802C76.07 33.1464 76.8577 33.9297 77.8293 33.9297C78.8009 33.9297 79.5886 33.1464 79.5886 32.1802C79.5886 31.2139 78.8009 30.4307 77.8293 30.4307C76.8577 30.4307 76.07 31.2139 76.07 32.1802Z" fill="#9871F5"/>
<path d="M76.07 44.4004C76.07 45.3666 76.8577 46.1499 77.8293 46.1499C78.8009 46.1499 79.5886 45.3666 79.5886 44.4004C79.5886 43.4342 78.8009 42.6509 77.8293 42.6509C76.8577 42.6509 76.07 43.4342 76.07 44.4004Z" fill="#9871F5"/>
<path d="M76.07 56.6108C76.07 57.5771 76.8577 58.3603 77.8293 58.3603C78.8009 58.3603 79.5886 57.5771 79.5886 56.6108C79.5886 55.6446 78.8009 54.8613 77.8293 54.8613C76.8577 54.8613 76.07 55.6446 76.07 56.6108Z" fill="#9871F5"/>
<path d="M76.07 68.8306C76.07 69.7968 76.8577 70.5801 77.8293 70.5801C78.8009 70.5801 79.5886 69.7968 79.5886 68.8306C79.5886 67.8643 78.8009 67.0811 77.8293 67.0811C76.8577 67.0811 76.07 67.8643 76.07 68.8306Z" fill="#9871F5"/>
<path d="M63.7807 7.74951C63.7807 8.71574 64.5683 9.49903 65.54 9.49903C66.5116 9.49903 67.2993 8.71574 67.2993 7.74951C67.2993 6.78328 66.5116 6 65.54 6C64.5683 6 63.7807 6.78328 63.7807 7.74951Z" fill="#9871F5"/>
<path d="M63.7807 19.9702C63.7807 20.9364 64.5683 21.7197 65.54 21.7197C66.5116 21.7197 67.2993 20.9364 67.2993 19.9702C67.2993 19.004 66.5116 18.2207 65.54 18.2207C64.5683 18.2207 63.7807 19.004 63.7807 19.9702Z" fill="#9871F5"/>
<path d="M63.7807 32.1802C63.7807 33.1464 64.5683 33.9297 65.54 33.9297C66.5116 33.9297 67.2993 33.1464 67.2993 32.1802C67.2993 31.2139 66.5116 30.4307 65.54 30.4307C64.5683 30.4307 63.7807 31.2139 63.7807 32.1802Z" fill="#9871F5"/>
<path d="M63.7807 44.4004C63.7807 45.3666 64.5683 46.1499 65.54 46.1499C66.5116 46.1499 67.2993 45.3666 67.2993 44.4004C67.2993 43.4342 66.5116 42.6509 65.54 42.6509C64.5683 42.6509 63.7807 43.4342 63.7807 44.4004Z" fill="#9871F5"/>
<path d="M63.7807 56.6108C63.7807 57.5771 64.5683 58.3603 65.54 58.3603C66.5116 58.3603 67.2993 57.5771 67.2993 56.6108C67.2993 55.6446 66.5116 54.8613 65.54 54.8613C64.5683 54.8613 63.7807 55.6446 63.7807 56.6108Z" fill="#9871F5"/>
<path d="M63.7807 68.8306C63.7807 69.7968 64.5683 70.5801 65.54 70.5801C66.5116 70.5801 67.2993 69.7968 67.2993 68.8306C67.2993 67.8643 66.5116 67.0811 65.54 67.0811C64.5683 67.0811 63.7807 67.8643 63.7807 68.8306Z" fill="#9871F5"/>
<path d="M51.5009 7.74951C51.5009 8.71574 52.2886 9.49903 53.2602 9.49903C54.2319 9.49903 55.0195 8.71574 55.0195 7.74951C55.0195 6.78328 54.2319 6 53.2602 6C52.2886 6 51.5009 6.78328 51.5009 7.74951Z" fill="#9871F5"/>
<path d="M51.5009 19.9702C51.5009 20.9364 52.2886 21.7197 53.2602 21.7197C54.2319 21.7197 55.0195 20.9364 55.0195 19.9702C55.0195 19.004 54.2319 18.2207 53.2602 18.2207C52.2886 18.2207 51.5009 19.004 51.5009 19.9702Z" fill="#9871F5"/>
<path d="M51.5009 32.1802C51.5009 33.1464 52.2886 33.9297 53.2602 33.9297C54.2319 33.9297 55.0195 33.1464 55.0195 32.1802C55.0195 31.2139 54.2319 30.4307 53.2602 30.4307C52.2886 30.4307 51.5009 31.2139 51.5009 32.1802Z" fill="#9871F5"/>
<path d="M51.5009 44.4004C51.5009 45.3666 52.2886 46.1499 53.2602 46.1499C54.2319 46.1499 55.0195 45.3666 55.0195 44.4004C55.0195 43.4342 54.2319 42.6509 53.2602 42.6509C52.2886 42.6509 51.5009 43.4342 51.5009 44.4004Z" fill="#9871F5"/>
<path d="M51.5009 56.6108C51.5009 57.5771 52.2886 58.3603 53.2602 58.3603C54.2319 58.3603 55.0195 57.5771 55.0195 56.6108C55.0195 55.6446 54.2319 54.8613 53.2602 54.8613C52.2886 54.8613 51.5009 55.6446 51.5009 56.6108Z" fill="#9871F5"/>
<path d="M51.5009 68.8306C51.5009 69.7968 52.2886 70.5801 53.2602 70.5801C54.2319 70.5801 55.0195 69.7968 55.0195 68.8306C55.0195 67.8643 54.2319 67.0811 53.2602 67.0811C52.2886 67.0811 51.5009 67.8643 51.5009 68.8306Z" fill="#9871F5"/>
<path d="M260.91 444.826C260.91 445.792 261.697 446.576 262.669 446.576C263.641 446.576 264.428 445.792 264.428 444.826C264.428 443.86 263.641 443.077 262.669 443.077C261.697 443.077 260.91 443.86 260.91 444.826Z" fill="#9871F5"/>
<path d="M260.91 457.038C260.91 458.004 261.698 458.787 262.669 458.787C263.641 458.787 264.429 458.004 264.429 457.038C264.429 456.071 263.641 455.288 262.669 455.288C261.698 455.288 260.91 456.071 260.91 457.038Z" fill="#9871F5"/>
<path d="M260.91 469.256C260.91 470.222 261.698 471.005 262.669 471.005C263.641 471.005 264.429 470.222 264.429 469.256C264.429 468.29 263.641 467.506 262.669 467.506C261.698 467.506 260.91 468.29 260.91 469.256Z" fill="#9871F5"/>
<path d="M248.621 444.826C248.621 445.792 249.408 446.575 250.38 446.575C251.352 446.575 252.139 445.792 252.139 444.826C252.139 443.859 251.352 443.076 250.38 443.076C249.408 443.076 248.621 443.859 248.621 444.826Z" fill="#9871F5"/>
<path d="M248.621 457.038C248.621 458.004 249.408 458.787 250.38 458.787C251.352 458.787 252.139 458.004 252.139 457.038C252.139 456.071 251.352 455.288 250.38 455.288C249.408 455.288 248.621 456.071 248.621 457.038Z" fill="#9871F5"/>
<path d="M248.621 469.256C248.621 470.222 249.408 471.005 250.38 471.005C251.352 471.005 252.139 470.222 252.139 469.256C252.139 468.29 251.352 467.506 250.38 467.506C249.408 467.506 248.621 468.29 248.621 469.256Z" fill="#9871F5"/>
<path d="M264.643 127.077C264.643 128.043 265.431 128.826 266.402 128.826C267.374 128.826 268.162 128.043 268.162 127.077C268.162 126.11 267.374 125.327 266.402 125.327C265.431 125.327 264.643 126.11 264.643 127.077Z" fill="#9871F5"/>
<path d="M264.643 139.287C264.643 140.253 265.431 141.036 266.402 141.036C267.374 141.036 268.162 140.253 268.162 139.287C268.162 138.321 267.374 137.537 266.402 137.537C265.431 137.537 264.643 138.321 264.643 139.287Z" fill="#9871F5"/>
<path d="M264.643 151.507C264.643 152.473 265.431 153.256 266.402 153.256C267.374 153.256 268.162 152.473 268.162 151.507C268.162 150.54 267.374 149.757 266.402 149.757C265.431 149.757 264.643 150.54 264.643 151.507Z" fill="#9871F5"/>
<path d="M252.354 127.076C252.354 128.043 253.141 128.826 254.113 128.826C255.085 128.826 255.872 128.043 255.872 127.076C255.872 126.11 255.085 125.327 254.113 125.327C253.141 125.327 252.354 126.11 252.354 127.076Z" fill="#9871F5"/>
<path d="M252.354 139.287C252.354 140.253 253.141 141.036 254.113 141.036C255.085 141.036 255.872 140.253 255.872 139.287C255.872 138.321 255.085 137.537 254.113 137.537C253.141 137.537 252.354 138.321 252.354 139.287Z" fill="#9871F5"/>
<path d="M252.354 151.507C252.354 152.473 253.141 153.257 254.113 153.257C255.085 153.257 255.872 152.473 255.872 151.507C255.872 150.541 255.085 149.758 254.113 149.758C253.141 149.758 252.354 150.541 252.354 151.507Z" fill="#9871F5"/>
<path d="M108.35 554.25C108.35 555.216 109.138 556 110.109 556C111.081 556 111.869 555.216 111.869 554.25C111.869 553.284 111.081 552.501 110.109 552.501C109.138 552.501 108.35 553.284 108.35 554.25Z" fill="#9871F5"/>
<path d="M96.0607 554.251C96.0607 555.217 96.8484 556 97.82 556C98.7917 556 99.5793 555.217 99.5793 554.251C99.5793 553.284 98.7917 552.501 97.82 552.501C96.8484 552.501 96.0607 553.284 96.0607 554.251Z" fill="#9871F5"/>
<path d="M83.7807 554.251C83.7807 555.217 84.5683 556 85.54 556C86.5116 556 87.2993 555.217 87.2993 554.251C87.2993 553.284 86.5116 552.501 85.54 552.501C84.5683 552.501 83.7807 553.284 83.7807 554.251Z" fill="#9871F5"/>
<path d="M71.4914 554.251C71.4914 555.217 72.2791 556 73.2507 556C74.2223 556 75.01 555.217 75.01 554.251C75.01 553.284 74.2223 552.501 73.2507 552.501C72.2791 552.501 71.4914 553.284 71.4914 554.251Z" fill="#9871F5"/>
<path d="M59.2118 554.251C59.2118 555.217 59.9995 556 60.9711 556C61.9428 556 62.7305 555.217 62.7305 554.251C62.7305 553.284 61.9428 552.501 60.9711 552.501C59.9995 552.501 59.2118 553.284 59.2118 554.251Z" fill="#9871F5"/>
<path d="M46.9225 554.251C46.9225 555.217 47.7102 556 48.6818 556C49.6535 556 50.4412 555.217 50.4412 554.251C50.4412 553.284 49.6535 552.501 48.6818 552.501C47.7102 552.501 46.9225 553.284 46.9225 554.251Z" fill="#9871F5"/>
<path d="M34.6425 554.251C34.6425 555.217 35.4302 556 36.4018 556C37.3735 556 38.1611 555.217 38.1611 554.251C38.1611 553.284 37.3735 552.501 36.4018 552.501C35.4302 552.501 34.6425 553.284 34.6425 554.251Z" fill="#9871F5"/>
<path d="M108.35 542.031C108.35 542.997 109.138 543.78 110.109 543.78C111.081 543.78 111.869 542.997 111.869 542.031C111.869 541.065 111.081 540.281 110.109 540.281C109.138 540.281 108.35 541.065 108.35 542.031Z" fill="#9871F5"/>
<path d="M96.0607 542.031C96.0607 542.997 96.8484 543.78 97.82 543.78C98.7917 543.78 99.5793 542.997 99.5793 542.031C99.5793 541.065 98.7917 540.281 97.82 540.281C96.8484 540.281 96.0607 541.065 96.0607 542.031Z" fill="#9871F5"/>
<path d="M83.7807 542.031C83.7807 542.997 84.5683 543.78 85.54 543.78C86.5116 543.78 87.2993 542.997 87.2993 542.031C87.2993 541.065 86.5116 540.281 85.54 540.281C84.5683 540.281 83.7807 541.065 83.7807 542.031Z" fill="#9871F5"/>
<path d="M71.4914 542.031C71.4914 542.997 72.2791 543.78 73.2507 543.78C74.2223 543.78 75.01 542.997 75.01 542.031C75.01 541.065 74.2223 540.281 73.2507 540.281C72.2791 540.281 71.4914 541.065 71.4914 542.031Z" fill="#9871F5"/>
<path d="M59.2118 542.031C59.2118 542.997 59.9995 543.78 60.9711 543.78C61.9428 543.78 62.7305 542.997 62.7305 542.031C62.7305 541.065 61.9428 540.281 60.9711 540.281C59.9995 540.281 59.2118 541.065 59.2118 542.031Z" fill="#9871F5"/>
<path d="M46.9225 542.031C46.9225 542.997 47.7102 543.78 48.6818 543.78C49.6535 543.78 50.4412 542.997 50.4412 542.031C50.4412 541.065 49.6535 540.281 48.6818 540.281C47.7102 540.281 46.9225 541.065 46.9225 542.031Z" fill="#9871F5"/>
<path d="M34.6425 542.031C34.6425 542.997 35.4302 543.78 36.4018 543.78C37.3735 543.78 38.1611 542.997 38.1611 542.031C38.1611 541.065 37.3735 540.281 36.4018 540.281C35.4302 540.281 34.6425 541.065 34.6425 542.031Z" fill="#9871F5"/>
<path d="M108.35 529.82C108.35 530.786 109.138 531.569 110.109 531.569C111.081 531.569 111.869 530.786 111.869 529.82C111.869 528.854 111.081 528.07 110.109 528.07C109.138 528.07 108.35 528.854 108.35 529.82Z" fill="#9871F5"/>
<path d="M96.0607 529.82C96.0607 530.786 96.8484 531.569 97.82 531.569C98.7917 531.569 99.5793 530.786 99.5793 529.82C99.5793 528.854 98.7917 528.07 97.82 528.07C96.8484 528.07 96.0607 528.854 96.0607 529.82Z" fill="#9871F5"/>
<path d="M83.7807 529.82C83.7807 530.786 84.5683 531.569 85.54 531.569C86.5116 531.569 87.2993 530.786 87.2993 529.82C87.2993 528.854 86.5116 528.07 85.54 528.07C84.5683 528.07 83.7807 528.854 83.7807 529.82Z" fill="#9871F5"/>
<path d="M71.4914 529.82C71.4914 530.786 72.2791 531.569 73.2507 531.569C74.2223 531.569 75.01 530.786 75.01 529.82C75.01 528.854 74.2223 528.07 73.2507 528.07C72.2791 528.07 71.4914 528.854 71.4914 529.82Z" fill="#9871F5"/>
<path d="M59.2118 529.82C59.2118 530.786 59.9995 531.569 60.9711 531.569C61.9428 531.569 62.7305 530.786 62.7305 529.82C62.7305 528.854 61.9428 528.07 60.9711 528.07C59.9995 528.07 59.2118 528.854 59.2118 529.82Z" fill="#9871F5"/>
<path d="M46.9225 529.82C46.9225 530.786 47.7102 531.569 48.6818 531.569C49.6535 531.569 50.4412 530.786 50.4412 529.82C50.4412 528.854 49.6535 528.07 48.6818 528.07C47.7102 528.07 46.9225 528.854 46.9225 529.82Z" fill="#9871F5"/>
<path d="M34.6425 529.82C34.6425 530.786 35.4302 531.569 36.4018 531.569C37.3735 531.569 38.1611 530.786 38.1611 529.82C38.1611 528.854 37.3735 528.07 36.4018 528.07C35.4302 528.07 34.6425 528.854 34.6425 529.82Z" fill="#9871F5"/>
<path d="M108.349 517.601C108.349 518.567 109.137 519.35 110.108 519.35C111.08 519.35 111.868 518.567 111.868 517.601C111.868 516.634 111.08 515.851 110.108 515.851C109.137 515.851 108.349 516.634 108.349 517.601Z" fill="#9871F5"/>
<path d="M96.0607 517.6C96.0607 518.566 96.8484 519.35 97.82 519.35C98.7917 519.35 99.5793 518.566 99.5793 517.6C99.5793 516.634 98.7917 515.851 97.82 515.851C96.8484 515.851 96.0607 516.634 96.0607 517.6Z" fill="#9871F5"/>
<path d="M83.7807 517.6C83.7807 518.566 84.5683 519.35 85.54 519.35C86.5116 519.35 87.2993 518.566 87.2993 517.6C87.2993 516.634 86.5116 515.851 85.54 515.851C84.5683 515.851 83.7807 516.634 83.7807 517.6Z" fill="#9871F5"/>
<path d="M71.4914 517.6C71.4914 518.566 72.2791 519.35 73.2507 519.35C74.2223 519.35 75.01 518.566 75.01 517.6C75.01 516.634 74.2223 515.851 73.2507 515.851C72.2791 515.851 71.4914 516.634 71.4914 517.6Z" fill="#9871F5"/>
<path d="M59.2118 517.6C59.2118 518.566 59.9995 519.35 60.9711 519.35C61.9428 519.35 62.7305 518.566 62.7305 517.6C62.7305 516.634 61.9428 515.851 60.9711 515.851C59.9995 515.851 59.2118 516.634 59.2118 517.6Z" fill="#9871F5"/>
<path d="M46.9225 517.6C46.9225 518.566 47.7102 519.35 48.6818 519.35C49.6535 519.35 50.4412 518.566 50.4412 517.6C50.4412 516.634 49.6535 515.851 48.6818 515.851C47.7102 515.851 46.9225 516.634 46.9225 517.6Z" fill="#9871F5"/>
<path d="M34.6425 517.6C34.6425 518.566 35.4302 519.35 36.4018 519.35C37.3735 519.35 38.1611 518.566 38.1611 517.6C38.1611 516.634 37.3735 515.851 36.4018 515.851C35.4302 515.851 34.6425 516.634 34.6425 517.6Z" fill="#9871F5"/>
</svg>
